<svg width="24" height="24" fill="none" xmlns="http://www.w3.org/2000/svg">
  <path d="M2.4 21.2c-.66 0-1.225-.235-1.695-.705A2.311 2.311 0 0 1 0 18.8V4.4c0-.66.235-1.225.705-1.695A2.311 2.311 0 0 1 2.4 2h19.2c.66 0 1.225.235 1.695.705S24 3.74 24 4.4v14.4c0 .66-.235 1.225-.705 1.695s-1.035.705-1.695.705H2.4Zm9.6-8.61a1.248 1.248 0 0 0 .63-.18l8.49-5.31a.992.992 0 0 0 .48-.87c0-.4-.17-.7-.51-.9-.34-.2-.69-.19-1.05.03L12 10.4 3.96 5.36c-.36-.22-.71-.225-1.05-.015-.34.21-.51.505-.51.885 0 .2.04.375.12.525.08.15.2.265.36.345l8.49 5.31a1.248 1.248 0 0 0 .63.18Z" fill="#fff" />
</svg>