<?xml version="1.0" encoding="UTF-8" standalone="no"?>
<!DOCTYPE svg PUBLIC "-//W3C//DTD SVG 1.1//EN" "http://www.w3.org/Graphics/SVG/1.1/DTD/svg11.dtd">
<svg width="100%" height="100%" viewBox="0 0 24 24" version="1.1" xmlns="http://www.w3.org/2000/svg" xmlns:xlink="http://www.w3.org/1999/xlink" xml:space="preserve" xmlns:serif="http://www.serif.com/" style="fill-rule:evenodd;clip-rule:evenodd;stroke-linejoin:round;stroke-miterlimit:2;">
    <path d="M21.333,0l-18.666,0c-1.467,0 -2.667,1.2 -2.667,2.667l-0,18.666c-0,1.467 1.2,2.667 2.667,2.667l18.666,-0c1.467,-0 2.667,-1.2 2.667,-2.667l-0,-18.666c-0,-1.467 -1.2,-2.667 -2.667,-2.667Zm-2.653,8l-13.347,-0l0,-2.667l13.347,0l-0,2.667Zm-0,5.333l-13.347,0l0,-2.666l13.347,-0l-0,2.666Zm-4,5.334l-9.347,-0l0,-2.667l9.347,-0l-0,2.667Z" style="fill:#fff;"/>
</svg>
