<svg width="24" height="24" fill="none" xmlns="http://www.w3.org/2000/svg">
   <path d="m1.464 19.656 1.059 1.829c.22.384.536.687.907.907l3.78-6.543H-.35c0 .426.11.852.33 1.237l1.484 2.57Z" fill="#0066DA" />
   <path d="M11.65 8.151 7.87 1.608c-.371.22-.687.522-.907.907L-.02 14.612a2.49 2.49 0 0 0-.33 1.237h7.56l4.44-7.698Z" fill="#00AC47" />
   <path d="M19.87 22.392c.371-.22.687-.523.907-.907l.44-.756 2.103-3.643c.22-.385.33-.811.33-1.237h-7.56l1.608 3.161 2.172 3.382Z" fill="#EA4335" />
   <path d="m11.65 8.151 3.78-6.543a2.417 2.417 0 0 0-1.237-.33H9.107c-.44 0-.866.124-1.237.33l3.78 6.543Z" fill="#00832D" />
   <path d="M16.09 15.849H7.21l-3.78 6.543c.371.22.797.33 1.237.33h13.966c.44 0 .866-.124 1.237-.33l-3.78-6.543Z" fill="#2684FC" />
   <path d="m19.829 8.563-3.492-6.048a2.496 2.496 0 0 0-.907-.907l-3.78 6.543 4.44 7.698h7.546c0-.426-.11-.853-.33-1.237L19.83 8.563Z" fill="#FFBA00" />
</svg>