<svg viewBox="0 0 24 24" xmlns="http://www.w3.org/2000/svg" xml:space="preserve" fill-rule="evenodd">
  <path d="M14.916 0c.197 0 .393.052.562.15l3.375 1.95a.377.377 0 0 1-.061.68L12.38 5.067a1.1 1.1 0 0 1-.755 0L5.208 2.78a.377.377 0 0 1-.061-.68L8.522.15c.169-.098.365-.15.562-.15h5.832ZM7.027 22.987l-3.549-2.053a1.115 1.115 0 0 1-.412-.412L.15 15.478a1.126 1.126 0 0 1-.15-.562v-3.952c0-.333.403-.502.642-.267l4.505 4.505c.126.126.225.285.276.459l2.152 6.886a.373.373 0 0 1-.544.436l-.004.004ZM24 10.964v3.947c0 .197-.052.394-.15.562l-2.916 5.049a1.115 1.115 0 0 1-.412.412l-3.553 2.049c-.296.169-.647-.113-.544-.436l2.152-6.886c.056-.174.15-.333.276-.459l4.505-4.505a.377.377 0 0 1 .642.267ZM.717 8.658A.746.746 0 0 1 .6 7.753l2.091-3.628a.75.75 0 0 1 .9-.333l7.162 2.56c.3.107.497.389.497.707v4.018a.746.746 0 0 1-.412.67l-4.205 2.1a.748.748 0 0 1-.867-.141L.717 8.658Zm20.592-4.533 2.096 3.623a.752.752 0 0 1-.117.905l-5.054 5.053a.748.748 0 0 1-.867.141l-4.205-2.1a.752.752 0 0 1-.412-.67V7.059c0-.318.202-.6.497-.707l7.162-2.56a.746.746 0 0 1 .9.333ZM13.852 24h-3.704a.75.75 0 0 1-.717-.525l-2.334-7.481a.753.753 0 0 1 .38-.896l4.186-2.095a.733.733 0 0 1 .67 0l4.186 2.095a.748.748 0 0 1 .379.896l-2.334 7.481a.75.75 0 0 1-.717.525h.005Z" fill="#fff" fill-rule="nonzero" />
</svg>