<?xml version="1.0" encoding="UTF-8" standalone="no"?>
<!DOCTYPE svg PUBLIC "-//W3C//DTD SVG 1.1//EN" "http://www.w3.org/Graphics/SVG/1.1/DTD/svg11.dtd">
<svg width="100%" height="100%" viewBox="0 0 24 24" version="1.1" xmlns="http://www.w3.org/2000/svg" xmlns:xlink="http://www.w3.org/1999/xlink" xml:space="preserve" xmlns:serif="http://www.serif.com/" style="fill-rule:evenodd;clip-rule:evenodd;stroke-linejoin:round;stroke-miterlimit:2;">
    <path d="M14.916,0c0.197,0 0.393,0.052 0.562,0.15l3.375,1.95c0.277,0.159 0.239,0.572 -0.061,0.68l-6.412,2.287c-0.244,0.089 -0.511,0.089 -0.755,0l-6.417,-2.287c-0.3,-0.108 -0.338,-0.521 -0.061,-0.68l3.375,-1.95c0.169,-0.098 0.365,-0.15 0.562,-0.15l5.832,0l-0,-0Zm-7.889,22.987l-3.549,-2.053c-0.169,-0.098 -0.314,-0.239 -0.412,-0.412l-2.916,-5.044c-0.098,-0.169 -0.15,-0.365 -0.15,-0.562l0,-3.952c0,-0.333 0.403,-0.502 0.642,-0.267l4.505,4.505c0.126,0.126 0.225,0.285 0.276,0.459l2.152,6.886c0.103,0.328 -0.248,0.609 -0.544,0.436l-0.004,0.004Zm16.973,-12.023l-0,3.947c-0,0.197 -0.052,0.394 -0.15,0.562l-2.916,5.049c-0.098,0.169 -0.239,0.314 -0.412,0.412l-3.553,2.049c-0.296,0.169 -0.647,-0.113 -0.544,-0.436l2.152,-6.886c0.056,-0.174 0.15,-0.333 0.276,-0.459l4.505,-4.505c0.234,-0.234 0.642,-0.07 0.642,0.267l-0,0Zm-23.283,-2.306c-0.239,-0.239 -0.29,-0.61 -0.117,-0.905l2.091,-3.628c0.182,-0.314 0.562,-0.455 0.9,-0.333l7.162,2.56c0.3,0.107 0.497,0.389 0.497,0.707l0,4.018c0,0.286 -0.159,0.543 -0.412,0.67l-4.205,2.1c-0.291,0.145 -0.638,0.089 -0.867,-0.141l-5.049,-5.048Zm20.592,-4.533l2.096,3.623c0.168,0.296 0.122,0.666 -0.117,0.905l-5.054,5.053c-0.229,0.23 -0.576,0.286 -0.867,0.141l-4.205,-2.1c-0.253,-0.127 -0.412,-0.389 -0.412,-0.67l0,-4.018c0,-0.318 0.202,-0.6 0.497,-0.707l7.162,-2.56c0.343,-0.122 0.722,0.019 0.9,0.333Zm-7.457,19.875l-3.704,-0c-0.328,-0 -0.618,-0.211 -0.717,-0.525l-2.334,-7.481c-0.108,-0.352 0.051,-0.731 0.38,-0.896l4.186,-2.095c0.21,-0.108 0.459,-0.108 0.67,0l4.186,2.095c0.328,0.165 0.492,0.544 0.379,0.896l-2.334,7.481c-0.098,0.314 -0.389,0.525 -0.717,0.525l0.005,-0Z" style="fill:#fff;fill-rule:nonzero;"/>
</svg>
