<svg viewBox="0 0 48 48" xmlns="http://www.w3.org/2000/svg" xml:space="preserve" fill-rule="evenodd">
  <path d="M22.894 34.484c0 .598.142 1.091.426 1.48.284.388.628.702 1.031.941.404.239.837.411 1.3.516.463.105.874.157 1.233.157v1.883c-.359 0-.807-.023-1.345-.067a83.292 83.292 0 0 1-1.659-.157 76.443 76.443 0 0 0-1.659-.157 16.652 16.652 0 0 0-1.344-.068c-.359 0-.807.023-1.345.068-.538.045-1.091.097-1.659.157-.568.059-1.121.112-1.659.157-.538.044-.986.067-1.345.067v-1.883c.389 0 .822-.052 1.3-.157a4.162 4.162 0 0 0 1.3-.516c.389-.239.718-.553.987-.941.269-.389.403-.882.403-1.48V16.731c0-1.106-.022-2.025-.067-2.758-.045-.732-.172-1.3-.381-1.703a1.767 1.767 0 0 0-.897-.852c-.388-.164-.926-.247-1.614-.247V9.602c.747 0 1.397-.045 1.95-.134a7.074 7.074 0 0 0 2.735-1.031l1.188-.762h1.121v26.809Zm.583-31.786c.627 0 1.375.03 2.241.09.867.06 1.764.201 2.69.426a13.64 13.64 0 0 1 2.735.986 8.84 8.84 0 0 1 2.421 1.726c.717.717 1.293 1.607 1.726 2.668.434 1.061.65 2.338.65 3.833 0 1.434-.201 2.66-.605 3.676-.403 1.016-.919 1.861-1.547 2.533-.627.673-1.315 1.181-2.062 1.524-.747.344-1.479.546-2.197.606v.179c1.166 0 2.369.239 3.609.717 1.241.478 2.361 1.218 3.363 2.219 1.001 1.002 1.83 2.272 2.488 3.811.657 1.54.986 3.385.986 5.537 0 2.421-.523 4.453-1.569 6.097a12.39 12.39 0 0 1-4.08 3.99c-1.673 1.017-3.579 1.741-5.716 2.175-2.137.433-4.296.65-6.478.65a31.32 31.32 0 0 1-5.066-.404c-1.644-.269-3.101-.672-4.371-1.21-1.271-.538-2.294-1.203-3.071-1.995-.778-.792-1.166-1.696-1.166-2.713 0-.717.224-1.15.672-1.3-.149-.089-.313-.284-.493-.582a5.935 5.935 0 0 1-.493-1.099 12.924 12.924 0 0 1-.403-1.479 7.911 7.911 0 0 1-.18-1.682c0-.448.053-.963.157-1.546a5.361 5.361 0 0 1 .628-1.704c.314-.553.762-1.054 1.345-1.502.583-.448 1.352-.762 2.309-.941l.269.224a8.465 8.465 0 0 0-.65 2.398 20.004 20.004 0 0 0-.157 2.444c0 2.51.411 4.49 1.233 5.94.822 1.45 1.815 2.548 2.981 3.295 1.166.747 2.369 1.218 3.609 1.413 1.24.194 2.294.291 3.161.291 1.584 0 3.138-.179 4.662-.538 1.525-.359 2.892-.949 4.102-1.771a9.524 9.524 0 0 0 2.937-3.183c.747-1.3 1.121-2.892 1.121-4.775 0-2.002-.329-3.713-.987-5.133-.657-1.42-1.494-2.585-2.51-3.497a9.678 9.678 0 0 0-3.363-1.995c-1.225-.419-2.406-.628-3.541-.628v-1.793c.986 0 1.89-.224 2.712-.673a6.387 6.387 0 0 0 2.085-1.815 8.835 8.835 0 0 0 1.322-2.623c.314-.986.471-2.017.471-3.093a8.562 8.562 0 0 0-.516-3.004 6.195 6.195 0 0 0-1.591-2.399c-.717-.672-1.637-1.195-2.757-1.569-1.121-.373-2.459-.56-4.013-.56-2.122 0-3.848.343-5.178 1.031-1.33.687-2.376 1.591-3.138 2.712a10.287 10.287 0 0 0-1.569 3.766 21.11 21.11 0 0 0-.426 4.237c-1.405 0-2.406-.269-3.004-.807-.598-.538-.897-1.27-.897-2.197 0-.867.217-1.569.65-2.107.434-.538.934-.807 1.502-.807-.239-.239-.388-.56-.448-.964a6.91 6.91 0 0 1-.09-.964c0-1.016.411-1.905 1.233-2.667.822-.763 1.876-1.405 3.161-1.928 1.285-.523 2.727-.912 4.326-1.166a30.398 30.398 0 0 1 4.775-.381Z" fill="#a91329" fill-rule="nonzero" />
  <path d="M11.986 27.986c.013-.272.079-.534.309-.342l.256.213c.421.351-.282.801-.282.801l.412-.269a8.022 8.022 0 0 0-.616 2.272 19.674 19.674 0 0 0-.153 2.389c0 2.416.383 4.323 1.174 5.718.782 1.379 1.724 2.428 2.833 3.138 1.11.712 2.255 1.162 3.436 1.347 1.213.19 2.243.286 3.091.286 1.549 0 3.069-.175 4.559-.526 1.469-.346 2.786-.913 3.953-1.705a9.1 9.1 0 0 0 2.799-3.035c.712-1.239 1.061-2.757 1.061-4.551 0-1.928-.312-3.577-.945-4.944-.63-1.36-1.429-2.478-2.403-3.351a9.237 9.237 0 0 0-3.207-1.904c-1.175-.402-2.307-.604-3.396-.604a.45.45 0 0 1-.45-.45v-1.793a.45.45 0 0 1 .45-.45c.907 0 1.74-.205 2.497-.618a5.945 5.945 0 0 0 1.939-1.689 8.372 8.372 0 0 0 1.254-2.49c.3-.943.45-1.929.45-2.957 0-1.02-.162-1.969-.487-2.848a5.761 5.761 0 0 0-1.478-2.226c-.674-.632-1.539-1.12-2.592-1.471-1.081-.36-2.371-.537-3.87-.537-2.037 0-3.695.321-4.971.981-1.26.65-2.252 1.504-2.973 2.565a9.85 9.85 0 0 0-1.501 3.603 20.738 20.738 0 0 0-.416 4.147.45.45 0 0 1-.45.45c-1.55 0-2.646-.329-3.305-.923-.69-.621-1.046-1.461-1.046-2.531 0-.984.258-1.778.75-2.389.336-.418.709-.697 1.113-.846a2.474 2.474 0 0 1-.154-.577 7.365 7.365 0 0 1-.095-1.03c0-1.141.455-2.142 1.377-2.997.858-.796 1.956-1.469 3.297-2.015 1.315-.535 2.79-.933 4.426-1.193a30.8 30.8 0 0 1 4.845-.387c.636 0 1.394.03 2.272.091.891.061 1.813.207 2.765.437.957.232 1.899.571 2.825 1.019a9.272 9.272 0 0 1 2.543 1.813c.758.757 1.367 1.695 1.825 2.815.453 1.109.683 2.443.683 4.004 0 1.499-.215 2.78-.637 3.842-.426 1.073-.973 1.964-1.636 2.674-.67.718-1.405 1.259-2.203 1.626a7.87 7.87 0 0 1-.346.15c.569.123 1.147.298 1.732.523 1.298.501 2.471 1.274 3.519 2.321 1.039 1.039 1.902 2.355 2.584 3.952.678 1.589 1.022 3.493 1.022 5.714 0 2.518-.551 4.629-1.639 6.339a12.843 12.843 0 0 1-4.226 4.133c-1.716 1.042-3.669 1.786-5.86 2.231a32.995 32.995 0 0 1-6.568.659 31.76 31.76 0 0 1-5.139-.41c-1.683-.275-3.174-.689-4.474-1.24-1.331-.564-2.402-1.264-3.217-2.094-.866-.883-1.294-1.894-1.294-3.028 0-.626.154-1.078.426-1.374a3.704 3.704 0 0 1-.183-.277 6.313 6.313 0 0 1-.532-1.183 13.246 13.246 0 0 1-.418-1.531 8.342 8.342 0 0 1-.19-1.777c0-.471.054-1.013.164-1.626a5.819 5.819 0 0 1 .679-1.846c.342-.602.828-1.149 1.462-1.637.632-.486 1.464-.832 2.501-1.027a.45.45 0 0 0-.357.538c-.755.187-1.379.469-1.869.846-.583.448-1.031.949-1.345 1.502a5.361 5.361 0 0 0-.628 1.704 8.934 8.934 0 0 0-.157 1.546c0 .568.06 1.129.18 1.682.119.553.254 1.046.403 1.479.15.433.314.8.493 1.099.18.298.344.493.493.582-.448.15-.672.583-.672 1.3 0 1.017.388 1.921 1.166 2.713.777.792 1.8 1.457 3.071 1.995 1.27.538 2.727.941 4.371 1.21a31.32 31.32 0 0 0 5.066.404c2.182 0 4.341-.217 6.478-.65 2.137-.434 4.043-1.158 5.716-2.175a12.39 12.39 0 0 0 4.08-3.99c1.046-1.644 1.569-3.676 1.569-6.097 0-2.152-.329-3.997-.986-5.537-.658-1.539-1.487-2.809-2.488-3.811-1.002-1.001-2.122-1.741-3.363-2.219-1.24-.478-2.443-.717-3.609-.717v-.179c.718-.06 1.45-.262 2.197-.606.747-.343 1.435-.851 2.062-1.524.628-.672 1.144-1.517 1.547-2.533.404-1.016.605-2.242.605-3.676 0-1.495-.216-2.772-.65-3.833-.433-1.061-1.009-1.951-1.726-2.668A8.84 8.84 0 0 0 31.143 4.2a13.64 13.64 0 0 0-2.735-.986 16.103 16.103 0 0 0-2.69-.426c-.866-.06-1.614-.09-2.241-.09-1.584 0-3.176.127-4.775.381-1.599.254-3.041.643-4.326 1.166-1.285.523-2.339 1.165-3.161 1.928-.822.762-1.233 1.651-1.233 2.667 0 .239.03.561.09.964.06.404.209.725.448.964-.568 0-1.068.269-1.502.807-.433.538-.65 1.24-.65 2.107 0 .927.299 1.659.897 2.197.598.538 1.599.807 3.004.807 0-1.435.142-2.847.426-4.237.284-1.39.807-2.645 1.569-3.766.762-1.121 1.808-2.025 3.138-2.712 1.33-.688 3.056-1.031 5.178-1.031 1.554 0 2.892.187 4.013.56 1.12.374 2.04.897 2.757 1.569a6.195 6.195 0 0 1 1.591 2.399c.344.926.516 1.928.516 3.004s-.157 2.107-.471 3.093a8.835 8.835 0 0 1-1.322 2.623 6.387 6.387 0 0 1-2.085 1.815 5.564 5.564 0 0 1-2.712.673v1.793c1.135 0 2.316.209 3.541.628a9.678 9.678 0 0 1 3.363 1.995c1.016.912 1.853 2.077 2.51 3.497.658 1.42.987 3.131.987 5.133 0 1.883-.374 3.475-1.121 4.775a9.524 9.524 0 0 1-2.937 3.183c-1.21.822-2.577 1.412-4.102 1.771a20.263 20.263 0 0 1-4.662.538c-.867 0-1.921-.097-3.161-.291-1.24-.195-2.443-.666-3.609-1.413s-2.159-1.845-2.981-3.295c-.822-1.45-1.233-3.43-1.233-5.94 0-.777.052-1.592.157-2.444a8.465 8.465 0 0 1 .65-2.398L12 27.984l-.014.002Zm11.358 6.498V7.675a.45.45 0 0 0-.45-.45h-1.121a.445.445 0 0 0-.243.071l-1.187.762a6.65 6.65 0 0 1-2.565.966c-.532.086-1.158.128-1.878.128a.45.45 0 0 0-.45.45v1.569c0 .249.202.45.45.45.612 0 1.093.065 1.439.211.292.124.515.341.672.645.187.36.292.87.332 1.524.044.725.066 1.635.066 2.73v17.753c0 .494-.101.903-.323 1.224a2.849 2.849 0 0 1-.853.814 3.694 3.694 0 0 1-1.16.459 5.684 5.684 0 0 1-1.204.147.45.45 0 0 0-.45.45v1.883c0 .248.201.45.45.45.369 0 .829-.023 1.382-.069a77.375 77.375 0 0 0 1.669-.158 81.592 81.592 0 0 1 1.649-.156c.523-.043.959-.066 1.308-.066.348 0 .784.023 1.307.066.535.045 1.085.097 1.649.156.571.06 1.128.113 1.669.158.553.046 1.013.069 1.382.069a.45.45 0 0 0 .45-.45v-1.883a.45.45 0 0 0-.45-.45c-.33 0-.708-.05-1.134-.146a4.025 4.025 0 0 1-1.17-.464 2.982 2.982 0 0 1-.897-.82c-.232-.318-.339-.724-.339-1.214Zm-.45 0c0 .598.142 1.091.426 1.48.284.388.628.702 1.031.941.404.239.837.411 1.3.516.463.105.874.157 1.233.157v1.883c-.359 0-.807-.023-1.345-.067a83.292 83.292 0 0 1-1.659-.157 76.443 76.443 0 0 0-1.659-.157 16.652 16.652 0 0 0-1.344-.068c-.359 0-.807.023-1.345.068-.538.045-1.091.097-1.659.157-.568.059-1.121.112-1.659.157-.538.044-.986.067-1.345.067v-1.883c.389 0 .822-.052 1.3-.157a4.162 4.162 0 0 0 1.3-.516c.389-.239.718-.553.987-.941.269-.389.403-.882.403-1.48V16.731c0-1.106-.022-2.025-.067-2.758-.045-.732-.172-1.3-.381-1.703a1.767 1.767 0 0 0-.897-.852c-.388-.164-.926-.247-1.614-.247V9.602c.747 0 1.397-.045 1.95-.134a7.074 7.074 0 0 0 2.735-1.031l1.188-.762h1.121v26.809Z" fill="#fff" />
</svg>