<?xml version="1.0" encoding="UTF-8" standalone="no"?>
<!DOCTYPE svg PUBLIC "-//W3C//DTD SVG 1.1//EN" "http://www.w3.org/Graphics/SVG/1.1/DTD/svg11.dtd">
<svg width="100%" height="100%" viewBox="0 0 48 48" version="1.1" xmlns="http://www.w3.org/2000/svg" xmlns:xlink="http://www.w3.org/1999/xlink" xml:space="preserve" xmlns:serif="http://www.serif.com/" style="fill-rule:evenodd;clip-rule:evenodd;stroke-linejoin:round;stroke-miterlimit:2;">
    <path d="M22.894,34.484c-0,0.598 0.142,1.091 0.426,1.48c0.284,0.388 0.628,0.702 1.031,0.941c0.404,0.239 0.837,0.411 1.3,0.516c0.463,0.105 0.874,0.157 1.233,0.157l0,1.883c-0.359,-0 -0.807,-0.023 -1.345,-0.067c-0.538,-0.045 -1.091,-0.098 -1.659,-0.157c-0.568,-0.06 -1.121,-0.112 -1.659,-0.157c-0.537,-0.045 -0.986,-0.068 -1.344,-0.068c-0.359,0 -0.807,0.023 -1.345,0.068c-0.538,0.045 -1.091,0.097 -1.659,0.157c-0.568,0.059 -1.121,0.112 -1.659,0.157c-0.538,0.044 -0.986,0.067 -1.345,0.067l-0,-1.883c0.389,-0 0.822,-0.052 1.3,-0.157c0.478,-0.105 0.912,-0.277 1.3,-0.516c0.389,-0.239 0.718,-0.553 0.987,-0.941c0.269,-0.389 0.403,-0.882 0.403,-1.48l0,-17.753c0,-1.106 -0.022,-2.025 -0.067,-2.758c-0.045,-0.732 -0.172,-1.3 -0.381,-1.703c-0.209,-0.404 -0.508,-0.688 -0.897,-0.852c-0.388,-0.164 -0.926,-0.247 -1.614,-0.247l0,-1.569c0.747,0 1.397,-0.045 1.95,-0.134c0.553,-0.09 1.054,-0.224 1.502,-0.404c0.449,-0.179 0.86,-0.388 1.233,-0.627c0.374,-0.239 0.77,-0.494 1.188,-0.762l1.121,-0l-0,26.809Zm0.583,-31.786c0.627,0 1.375,0.03 2.241,0.09c0.867,0.06 1.764,0.201 2.69,0.426c0.927,0.224 1.839,0.553 2.735,0.986c0.897,0.433 1.704,1.009 2.421,1.726c0.717,0.717 1.293,1.607 1.726,2.668c0.434,1.061 0.65,2.338 0.65,3.833c0,1.434 -0.201,2.66 -0.605,3.676c-0.403,1.016 -0.919,1.861 -1.547,2.533c-0.627,0.673 -1.315,1.181 -2.062,1.524c-0.747,0.344 -1.479,0.546 -2.197,0.606l0,0.179c1.166,-0 2.369,0.239 3.609,0.717c1.241,0.478 2.361,1.218 3.363,2.219c1.001,1.002 1.83,2.272 2.488,3.811c0.657,1.54 0.986,3.385 0.986,5.537c0,2.421 -0.523,4.453 -1.569,6.097c-1.046,1.644 -2.406,2.974 -4.08,3.99c-1.673,1.017 -3.579,1.741 -5.716,2.175c-2.137,0.433 -4.296,0.65 -6.478,0.65c-1.734,-0 -3.422,-0.135 -5.066,-0.404c-1.644,-0.269 -3.101,-0.672 -4.371,-1.21c-1.271,-0.538 -2.294,-1.203 -3.071,-1.995c-0.778,-0.792 -1.166,-1.696 -1.166,-2.713c-0,-0.717 0.224,-1.15 0.672,-1.3c-0.149,-0.089 -0.313,-0.284 -0.493,-0.582c-0.179,-0.299 -0.343,-0.666 -0.493,-1.099c-0.149,-0.433 -0.284,-0.926 -0.403,-1.479c-0.12,-0.553 -0.18,-1.114 -0.18,-1.682c0,-0.448 0.053,-0.963 0.157,-1.546c0.105,-0.583 0.314,-1.151 0.628,-1.704c0.314,-0.553 0.762,-1.054 1.345,-1.502c0.583,-0.448 1.352,-0.762 2.309,-0.941l0.269,0.224c-0.329,0.747 -0.546,1.547 -0.65,2.398c-0.105,0.852 -0.157,1.667 -0.157,2.444c-0,2.51 0.411,4.49 1.233,5.94c0.822,1.45 1.815,2.548 2.981,3.295c1.166,0.747 2.369,1.218 3.609,1.413c1.24,0.194 2.294,0.291 3.161,0.291c1.584,-0 3.138,-0.179 4.662,-0.538c1.525,-0.359 2.892,-0.949 4.102,-1.771c1.211,-0.822 2.19,-1.883 2.937,-3.183c0.747,-1.3 1.121,-2.892 1.121,-4.775c-0,-2.002 -0.329,-3.713 -0.987,-5.133c-0.657,-1.42 -1.494,-2.585 -2.51,-3.497c-1.016,-0.912 -2.137,-1.577 -3.363,-1.995c-1.225,-0.419 -2.406,-0.628 -3.541,-0.628l-0,-1.793c0.986,-0 1.89,-0.224 2.712,-0.673c0.822,-0.448 1.517,-1.053 2.085,-1.815c0.568,-0.762 1.008,-1.637 1.322,-2.623c0.314,-0.986 0.471,-2.017 0.471,-3.093c0,-1.076 -0.172,-2.078 -0.516,-3.004c-0.343,-0.927 -0.874,-1.726 -1.591,-2.399c-0.717,-0.672 -1.637,-1.195 -2.757,-1.569c-1.121,-0.373 -2.459,-0.56 -4.013,-0.56c-2.122,-0 -3.848,0.343 -5.178,1.031c-1.33,0.687 -2.376,1.591 -3.138,2.712c-0.762,1.121 -1.285,2.376 -1.569,3.766c-0.284,1.39 -0.426,2.802 -0.426,4.237c-1.405,-0 -2.406,-0.269 -3.004,-0.807c-0.598,-0.538 -0.897,-1.27 -0.897,-2.197c0,-0.867 0.217,-1.569 0.65,-2.107c0.434,-0.538 0.934,-0.807 1.502,-0.807c-0.239,-0.239 -0.388,-0.56 -0.448,-0.964c-0.06,-0.403 -0.09,-0.725 -0.09,-0.964c0,-1.016 0.411,-1.905 1.233,-2.667c0.822,-0.763 1.876,-1.405 3.161,-1.928c1.285,-0.523 2.727,-0.912 4.326,-1.166c1.599,-0.254 3.191,-0.381 4.775,-0.381Z" style="fill:#a91329;fill-rule:nonzero;"/>
    <path d="M11.986,27.986c0.013,-0.272 0.079,-0.534 0.309,-0.342c0.039,0.033 0.22,0.183 0.256,0.213c0.421,0.351 -0.282,0.801 -0.282,0.801l0.412,-0.269c-0.312,0.708 -0.517,1.465 -0.616,2.272c-0.102,0.833 -0.153,1.629 -0.153,2.389c-0,2.416 0.383,4.323 1.174,5.718c0.782,1.379 1.724,2.428 2.833,3.138c1.11,0.712 2.255,1.162 3.436,1.347c1.213,0.19 2.243,0.286 3.091,0.286c1.549,-0 3.069,-0.175 4.559,-0.526c1.469,-0.346 2.786,-0.913 3.953,-1.705c1.154,-0.784 2.086,-1.796 2.799,-3.035c0.712,-1.239 1.061,-2.757 1.061,-4.551c-0,-1.928 -0.312,-3.577 -0.945,-4.944c-0.63,-1.36 -1.429,-2.478 -2.403,-3.351c-0.969,-0.87 -2.038,-1.505 -3.207,-1.904c-1.175,-0.402 -2.307,-0.604 -3.396,-0.604c-0.249,0 -0.45,-0.201 -0.45,-0.45l-0,-1.793c-0,-0.249 0.201,-0.45 0.45,-0.45c0.907,-0 1.74,-0.205 2.497,-0.618c0.764,-0.417 1.411,-0.98 1.939,-1.689c0.539,-0.724 0.957,-1.554 1.254,-2.49c0.3,-0.943 0.45,-1.929 0.45,-2.957c0,-1.02 -0.162,-1.969 -0.487,-2.848c-0.32,-0.86 -0.812,-1.602 -1.478,-2.226c-0.674,-0.632 -1.539,-1.12 -2.592,-1.471c-1.081,-0.36 -2.371,-0.537 -3.87,-0.537c-2.037,-0 -3.695,0.321 -4.971,0.981c-1.26,0.65 -2.252,1.504 -2.973,2.565c-0.729,1.072 -1.229,2.274 -1.501,3.603c-0.277,1.361 -0.416,2.743 -0.416,4.147c-0,0.248 -0.202,0.45 -0.45,0.45c-1.55,-0 -2.646,-0.329 -3.305,-0.923c-0.69,-0.621 -1.046,-1.461 -1.046,-2.531c0,-0.984 0.258,-1.778 0.75,-2.389c0.336,-0.418 0.709,-0.697 1.113,-0.846c-0.071,-0.174 -0.123,-0.366 -0.154,-0.577c-0.064,-0.431 -0.095,-0.774 -0.095,-1.03c0,-1.141 0.455,-2.142 1.377,-2.997c0.858,-0.796 1.956,-1.469 3.297,-2.015c1.315,-0.535 2.79,-0.933 4.426,-1.193c1.622,-0.258 3.237,-0.387 4.845,-0.387c0.636,0 1.394,0.03 2.272,0.091c0.891,0.061 1.813,0.207 2.765,0.437c0.957,0.232 1.899,0.571 2.825,1.019c0.942,0.455 1.79,1.059 2.543,1.813c0.758,0.757 1.367,1.695 1.825,2.815c0.453,1.109 0.683,2.443 0.683,4.004c0,1.499 -0.215,2.78 -0.637,3.842c-0.426,1.073 -0.973,1.964 -1.636,2.674c-0.67,0.718 -1.405,1.259 -2.203,1.626c-0.116,0.053 -0.231,0.104 -0.346,0.15c0.569,0.123 1.147,0.298 1.732,0.523c1.298,0.501 2.471,1.274 3.519,2.321c1.039,1.039 1.902,2.355 2.584,3.952c0.678,1.589 1.022,3.493 1.022,5.714c0,2.518 -0.551,4.629 -1.639,6.339c-1.084,1.703 -2.492,3.08 -4.226,4.133c-1.716,1.042 -3.669,1.786 -5.86,2.231c-2.167,0.439 -4.356,0.659 -6.568,0.659c-1.759,-0 -3.471,-0.137 -5.139,-0.41c-1.683,-0.275 -3.174,-0.689 -4.474,-1.24c-1.331,-0.564 -2.402,-1.264 -3.217,-2.094c-0.866,-0.883 -1.294,-1.894 -1.294,-3.028c-0,-0.626 0.154,-1.078 0.426,-1.374c-0.06,-0.082 -0.121,-0.174 -0.183,-0.277c-0.193,-0.322 -0.371,-0.716 -0.532,-1.183c-0.155,-0.449 -0.295,-0.959 -0.418,-1.531c-0.127,-0.584 -0.19,-1.177 -0.19,-1.777c0,-0.471 0.054,-1.013 0.164,-1.626c0.114,-0.631 0.339,-1.247 0.679,-1.846c0.342,-0.602 0.828,-1.149 1.462,-1.637c0.632,-0.486 1.464,-0.832 2.501,-1.027c-0.229,0.043 -0.387,0.253 -0.365,0.484c0.001,0.019 0.004,0.036 0.008,0.054c-0.755,0.187 -1.379,0.469 -1.869,0.846c-0.583,0.448 -1.031,0.949 -1.345,1.502c-0.314,0.553 -0.523,1.121 -0.628,1.704c-0.104,0.583 -0.157,1.098 -0.157,1.546c0,0.568 0.06,1.129 0.18,1.682c0.119,0.553 0.254,1.046 0.403,1.479c0.15,0.433 0.314,0.8 0.493,1.099c0.18,0.298 0.344,0.493 0.493,0.582c-0.448,0.15 -0.672,0.583 -0.672,1.3c-0,1.017 0.388,1.921 1.166,2.713c0.777,0.792 1.8,1.457 3.071,1.995c1.27,0.538 2.727,0.941 4.371,1.21c1.644,0.269 3.332,0.404 5.066,0.404c2.182,-0 4.341,-0.217 6.478,-0.65c2.137,-0.434 4.043,-1.158 5.716,-2.175c1.674,-1.016 3.034,-2.346 4.08,-3.99c1.046,-1.644 1.569,-3.676 1.569,-6.097c0,-2.152 -0.329,-3.997 -0.986,-5.537c-0.658,-1.539 -1.487,-2.809 -2.488,-3.811c-1.002,-1.001 -2.122,-1.741 -3.363,-2.219c-1.24,-0.478 -2.443,-0.717 -3.609,-0.717l0,-0.179c0.718,-0.06 1.45,-0.262 2.197,-0.606c0.747,-0.343 1.435,-0.851 2.062,-1.524c0.628,-0.672 1.144,-1.517 1.547,-2.533c0.404,-1.016 0.605,-2.242 0.605,-3.676c0,-1.495 -0.216,-2.772 -0.65,-3.833c-0.433,-1.061 -1.009,-1.951 -1.726,-2.668c-0.717,-0.717 -1.524,-1.293 -2.421,-1.726c-0.896,-0.433 -1.808,-0.762 -2.735,-0.986c-0.926,-0.225 -1.823,-0.366 -2.69,-0.426c-0.866,-0.06 -1.614,-0.09 -2.241,-0.09c-1.584,0 -3.176,0.127 -4.775,0.381c-1.599,0.254 -3.041,0.643 -4.326,1.166c-1.285,0.523 -2.339,1.165 -3.161,1.928c-0.822,0.762 -1.233,1.651 -1.233,2.667c0,0.239 0.03,0.561 0.09,0.964c0.06,0.404 0.209,0.725 0.448,0.964c-0.568,-0 -1.068,0.269 -1.502,0.807c-0.433,0.538 -0.65,1.24 -0.65,2.107c0,0.927 0.299,1.659 0.897,2.197c0.598,0.538 1.599,0.807 3.004,0.807c-0,-1.435 0.142,-2.847 0.426,-4.237c0.284,-1.39 0.807,-2.645 1.569,-3.766c0.762,-1.121 1.808,-2.025 3.138,-2.712c1.33,-0.688 3.056,-1.031 5.178,-1.031c1.554,-0 2.892,0.187 4.013,0.56c1.12,0.374 2.04,0.897 2.757,1.569c0.717,0.673 1.248,1.472 1.591,2.399c0.344,0.926 0.516,1.928 0.516,3.004c0,1.076 -0.157,2.107 -0.471,3.093c-0.314,0.986 -0.754,1.861 -1.322,2.623c-0.568,0.762 -1.263,1.367 -2.085,1.815c-0.822,0.449 -1.726,0.673 -2.712,0.673l-0,1.793c1.135,0 2.316,0.209 3.541,0.628c1.226,0.418 2.347,1.083 3.363,1.995c1.016,0.912 1.853,2.077 2.51,3.497c0.658,1.42 0.987,3.131 0.987,5.133c-0,1.883 -0.374,3.475 -1.121,4.775c-0.747,1.3 -1.726,2.361 -2.937,3.183c-1.21,0.822 -2.577,1.412 -4.102,1.771c-1.524,0.359 -3.078,0.538 -4.662,0.538c-0.867,-0 -1.921,-0.097 -3.161,-0.291c-1.24,-0.195 -2.443,-0.666 -3.609,-1.413c-1.166,-0.747 -2.159,-1.845 -2.981,-3.295c-0.822,-1.45 -1.233,-3.43 -1.233,-5.94c-0,-0.777 0.052,-1.592 0.157,-2.444c0.104,-0.851 0.321,-1.651 0.65,-2.398l-0.269,-0.224l-0.014,0.002Zm11.358,6.498l-0,-26.809c-0,-0.249 -0.201,-0.45 -0.45,-0.45l-1.121,-0c-0.086,-0 -0.171,0.024 -0.243,0.071c-0.418,0.269 -0.814,0.523 -1.187,0.762c-0.351,0.224 -0.737,0.42 -1.158,0.588c-0.42,0.168 -0.889,0.294 -1.407,0.378c-0.532,0.086 -1.158,0.128 -1.878,0.128c-0.248,0 -0.45,0.202 -0.45,0.45l0,1.569c0,0.249 0.202,0.45 0.45,0.45c0.612,0 1.093,0.065 1.439,0.211c0.292,0.124 0.515,0.341 0.672,0.645c0.187,0.36 0.292,0.87 0.332,1.524c0.044,0.725 0.066,1.635 0.066,2.73l0,17.753c0,0.494 -0.101,0.903 -0.323,1.224c-0.233,0.336 -0.517,0.607 -0.853,0.814c-0.346,0.213 -0.733,0.366 -1.16,0.459c-0.443,0.097 -0.844,0.147 -1.204,0.147c-0.249,-0 -0.45,0.201 -0.45,0.45l-0,1.883c-0,0.248 0.201,0.45 0.45,0.45c0.369,-0 0.829,-0.023 1.382,-0.069c0.541,-0.045 1.098,-0.098 1.669,-0.158c0.564,-0.059 1.114,-0.111 1.649,-0.156c0.523,-0.043 0.959,-0.066 1.308,-0.066c0.348,0 0.784,0.023 1.307,0.066c0.535,0.045 1.085,0.097 1.649,0.156c0.571,0.06 1.128,0.113 1.669,0.158c0.553,0.046 1.013,0.069 1.382,0.069c0.249,-0 0.45,-0.202 0.45,-0.45l0,-1.883c0,-0.249 -0.201,-0.45 -0.45,-0.45c-0.33,-0 -0.708,-0.05 -1.134,-0.146c-0.417,-0.094 -0.806,-0.249 -1.17,-0.464c-0.351,-0.208 -0.65,-0.481 -0.897,-0.82c-0.232,-0.318 -0.339,-0.724 -0.339,-1.214Zm-0.45,0c-0,0.598 0.142,1.091 0.426,1.48c0.284,0.388 0.628,0.702 1.031,0.941c0.404,0.239 0.837,0.411 1.3,0.516c0.463,0.105 0.874,0.157 1.233,0.157l0,1.883c-0.359,-0 -0.807,-0.023 -1.345,-0.067c-0.538,-0.045 -1.091,-0.098 -1.659,-0.157c-0.568,-0.06 -1.121,-0.112 -1.659,-0.157c-0.537,-0.045 -0.986,-0.068 -1.344,-0.068c-0.359,0 -0.807,0.023 -1.345,0.068c-0.538,0.045 -1.091,0.097 -1.659,0.157c-0.568,0.059 -1.121,0.112 -1.659,0.157c-0.538,0.044 -0.986,0.067 -1.345,0.067l-0,-1.883c0.389,-0 0.822,-0.052 1.3,-0.157c0.478,-0.105 0.912,-0.277 1.3,-0.516c0.389,-0.239 0.718,-0.553 0.987,-0.941c0.269,-0.389 0.403,-0.882 0.403,-1.48l0,-17.753c0,-1.106 -0.022,-2.025 -0.067,-2.758c-0.045,-0.732 -0.172,-1.3 -0.381,-1.703c-0.209,-0.404 -0.508,-0.688 -0.897,-0.852c-0.388,-0.164 -0.926,-0.247 -1.614,-0.247l0,-1.569c0.747,0 1.397,-0.045 1.95,-0.134c0.553,-0.09 1.054,-0.224 1.502,-0.404c0.449,-0.179 0.86,-0.388 1.233,-0.627c0.374,-0.239 0.77,-0.494 1.188,-0.762l1.121,-0l-0,26.809Z" style="fill:#fff;"/>
</svg>
